<?xml version="1.0" standalone="no"?>
<!DOCTYPE svg PUBLIC "-//W3C//DTD SVG 20010904//EN"
 "http://www.w3.org/TR/2001/REC-SVG-20010904/DTD/svg10.dtd">
<svg version="1.0" xmlns="http://www.w3.org/2000/svg"
 width="700.000000pt" height="700.000000pt" viewBox="0 0 700.000000 700.000000"
 preserveAspectRatio="xMidYMid meet">
<metadata>
Created by potrace 1.11, written by Peter Selinger 2001-2013
</metadata>
<g transform="translate(0.000000,700.000000) scale(0.100000,-0.100000)"
fill="#000000" stroke="none">
<path d="M3398 6415 c-2 -1 -68 -5 -148 -9 -80 -3 -163 -8 -185 -11 -98 -13
-195 -26 -213 -30 -11 -2 -37 -6 -58 -9 -22 -4 -61 -11 -89 -16 -27 -6 -59
-12 -70 -14 -125 -25 -489 -137 -510 -157 -5 -5 -16 -9 -25 -9 -31 0 -354
-167 -460 -238 -444 -297 -698 -667 -756 -1102 -15 -115 -6 -317 20 -465 42
-232 115 -491 205 -720 6 -16 17 -43 23 -60 21 -56 90 -220 124 -293 19 -41
34 -76 34 -79 0 -3 49 -103 108 -222 96 -191 124 -244 192 -366 9 -16 32 -57
51 -90 69 -124 245 -405 347 -555 404 -594 802 -1033 1130 -1244 213 -138 378
-171 560 -110 313 105 737 488 1147 1039 33 44 62 82 65 85 44 44 385 573 477
740 16 30 54 98 83 150 58 104 251 492 289 580 177 411 301 793 346 1063 3 17
10 56 15 85 12 69 24 217 24 307 -1 189 -39 370 -115 533 -16 35 -29 65 -29
68 0 13 -110 179 -165 249 -121 155 -332 336 -525 452 -91 55 -309 165 -350
178 -14 4 -43 16 -65 26 -172 79 -647 196 -875 215 -36 3 -78 7 -95 9 -84 12
-498 28 -507 20z m342 -299 c195 -11 352 -32 545 -72 119 -25 356 -89 385
-105 8 -4 44 -17 80 -30 108 -37 338 -153 455 -230 61 -40 112 -75 115 -78 3
-3 34 -31 69 -61 234 -200 376 -431 426 -694 14 -74 21 -285 11 -346 -2 -14
-7 -47 -10 -75 -19 -155 -59 -328 -126 -545 -29 -95 -123 -349 -154 -415 -13
-27 -45 -99 -72 -160 -104 -236 -336 -669 -469 -876 -223 -347 -406 -603 -587
-824 -9 -11 -33 -40 -53 -65 -125 -151 -343 -370 -473 -473 -218 -174 -354
-220 -492 -168 -55 21 -154 78 -201 115 -14 12 -43 34 -65 51 -49 36 -267 255
-356 355 -645 731 -1333 1973 -1531 2765 -27 104 -31 128 -47 235 -6 36 -13
81 -15 100 -7 41 -7 221 -1 265 19 133 42 207 101 330 272 564 1051 954 2000
1001 72 4 131 7 132 8 4 4 212 -2 333 -8z"/>
<path d="M3500 5686 l0 -146 73 -1 c39 0 97 -2 127 -4 30 -3 82 -7 115 -9 69
-6 273 -34 294 -42 8 -2 30 -7 50 -10 66 -11 273 -74 373 -114 184 -75 327
-163 451 -279 169 -160 254 -332 266 -538 1 -23 3 -23 147 -23 l146 0 -7 87
c-3 48 -8 90 -11 94 -2 4 -6 23 -10 43 -9 61 -52 175 -94 253 -174 323 -532
577 -1005 714 -139 40 -344 82 -465 94 -30 4 -71 8 -90 11 -19 2 -108 7 -197
11 l-163 6 0 -147z"/>
<path d="M4871 3353 c-395 -796 -832 -1410 -1122 -1577 -25 -14 -55 -26 -67
-26 -33 0 -38 -24 -37 -164 1 -99 4 -131 14 -134 24 -8 124 19 197 54 160 76
376 280 567 534 31 41 61 80 65 86 51 60 314 478 399 634 16 30 53 96 81 147
28 51 101 191 162 313 108 216 110 221 88 229 -13 5 -72 32 -132 60 -59 28
-109 51 -110 51 -1 0 -48 -93 -105 -207z"/>
</g>
</svg>
