<?xml version="1.0" encoding="utf-8"?>
<!-- Generator: Adobe Illustrator 23.0.2, SVG Export Plug-In . SVG Version: 6.00 Build 0)  -->
<svg version="1.1" id="Layer_1" xmlns="http://www.w3.org/2000/svg" xmlns:xlink="http://www.w3.org/1999/xlink" x="0px" y="0px"
	 viewBox="0 0 675 479" style="enable-background:new 0 0 675 479;" xml:space="preserve">
<path d="M665.2,282.6C506.6,291.3,518,165.4,518,165.4c-28.6-0.5-75.4-37.3-75.4-37.3l-4.1,4.1c75.4,102.7,46.8,104,34.5,107.2
	c-5.2,1.3-12.2-1.1-18.5-4.3L364,143.3l9.6-9.7c12.8-11.1,29.4-13.4,39-5.2c-0.7-13.2,5.4-28.4,17.5-40.5
	c12.7-12.7,28.8-18.8,42.5-17.3l9.1-9.1l-1.4-28l-2.9-2.9c-1,3.1-2.5,6.2-4.7,9.3c-7.4,10.7-18.5,15.7-24.8,11.3
	c-3.9-2.7-5.1-8.4-3.6-14.8c-6.4,1.4-12.1,0.3-14.8-3.6c-4.4-6.3,0.7-17.4,11.3-24.8c3-2.1,6.2-3.6,9.3-4.7l-1.7-1.7l-28.3-1.4
	l-10.5,10.5c0.2,12.9-5.8,27.5-17.5,39.2c-11.8,11.7-26.4,17.7-39.2,17.5l-0.7,0.7c7.9,10,5.1,26.9-6.6,39.7l-8.3,8.4l-8.2-8.4
	C317.4,94.9,314.6,78,322.5,68l-0.7-0.7c-12.9,0.2-27.5-5.8-39.2-17.5s-17.7-26.3-17.5-39.2L254.6,0.1l-28.3,1.4l-1.7,1.7
	c3.1,1.1,6.3,2.6,9.3,4.7c10.6,7.4,15.7,18.5,11.3,24.8c-2.7,3.9-8.4,5-14.8,3.6c1.5,6.4,0.3,12.1-3.6,14.8
	c-6.3,4.4-17.4-0.6-24.8-11.3c-2.2-3.1-3.7-6.2-4.7-9.3l-2.9,2.9l-1.4,28l9.1,9.1c13.7-1.5,29.8,4.6,42.5,17.3
	c12.1,12.1,18.2,27.3,17.5,40.5c9.6-8.2,26.2-5.9,39,5.2l9.5,9.7L220.1,235c-6.3,3.2-13.3,5.6-18.5,4.3
	c-12.3-3.2-40.9-4.5,34.5-107.2L232,128c0,0-46.8,36.8-75.4,37.3c0,0,11.4,125.9-147.2,117.2c0,0-36.8,87.7,35.4,154.5
	s155.9,33.2,155.9,33.2S178.9,333,304.3,335.7c0,0-7.3-24.5,20-58.2l-4.1-4.1c0,0-33.2,34.1-65.4,28.2c-21.8-4-16.4-23.5-10.8-36.4
	l93.4-94.9l93.3,94.9c5.6,12.9,11,32.4-10.8,36.4c-32.2,5.9-65.4-28.2-65.4-28.2l-4.1,4.1c27.3,33.7,20,58.2,20,58.2
	C495.8,333,474,470.2,474,470.2s83.6,33.6,155.9-33.2C702.1,370.2,665.3,282.5,665.2,282.6z" fill="#fff"/>
</svg>
